HIERARCHY
ROOT pelvis
{
    OFFSET 0.0 96.08435821533203 0.0
    CHANNELS 6 Xposition Yposition Zposition Zrotation Yrotation Xrotation

    JOINT left_hip
    {
        OFFSET -4.921870708465576 -5.130958557128906 3.446061611175537
        CHANNELS 3 Zrotation Yrotation Xrotation

        JOINT left_knee
        {
            OFFSET -4.649590969085693 -40.34756088256836 5.330539226531982
            CHANNELS 3 Zrotation Yrotation Xrotation

            JOINT left_ankle
            {
                OFFSET 6.302630424499512 -40.65017318725586 12.716626167297363
                CHANNELS 3 Zrotation Yrotation Xrotation

                JOINT left_foot
                {
                    OFFSET -7.921489715576172 -7.7018842697143555 -8.565654754638672
                    CHANNELS 3 Zrotation Yrotation Xrotation

                    End Site
                    {
                        OFFSET 0 0 0
                    }
                }
            }
        }
    }

    JOINT right_hip
    {
        OFFSET 7.089080810546875 -4.0766754150390625 2.0615856647491455
        CHANNELS 3 Zrotation Yrotation Xrotation

        JOINT right_knee
        {
            OFFSET 8.217405319213867 -39.7088508605957 -4.349353313446045
            CHANNELS 3 Zrotation Yrotation Xrotation

            JOINT right_ankle
            {
                OFFSET -1.3544797897338867 -40.209346771240234 0.14496493339538574
                CHANNELS 3 Zrotation Yrotation Xrotation

                JOINT right_foot
                {
                    OFFSET 8.24019718170166 -8.476435661315918 -10.465839385986328
                    CHANNELS 3 Zrotation Yrotation Xrotation

                    End Site
                    {
                        OFFSET 0 0 0
                    }
                }
            }
        }
    }

    JOINT spine1
    {
        OFFSET -0.9297748804092407 17.30590057373047 2.1690239906311035
        CHANNELS 3 Zrotation Yrotation Xrotation

        JOINT spine2
        {
            OFFSET -1.914084553718567 11.426872253417969 -5.6376752853393555
            CHANNELS 3 Zrotation Yrotation Xrotation

            JOINT spine3
            {
                OFFSET -0.5670003890991211 4.369392395019531 -1.535980224609375
                CHANNELS 3 Zrotation Yrotation Xrotation

                JOINT left_collar
                {
                    OFFSET -9.079269409179688 8.533721923828125 -1.3516225814819336
                    CHANNELS 3 Zrotation Yrotation Xrotation

                    JOINT left_shoulder
                    {
                        OFFSET -13.109237670898438 0.85162353515625 0.36411094665527344
                        CHANNELS 3 Zrotation Yrotation Xrotation

                        JOINT left_elbow
                        {
                            OFFSET -6.698644638061523 -21.901626586914062 2.0577542781829834
                            CHANNELS 3 Zrotation Yrotation Xrotation

                            JOINT left_wrist
                            {
                                OFFSET 8.380794525146484 -7.2890777587890625 -23.536325454711914
                                CHANNELS 3 Zrotation Yrotation Xrotation

                                End Site
                                {
                                    OFFSET 0 0 0
                                }
                            }
                        }
                    }
                }

                JOINT right_collar
                {
                    OFFSET 6.8288469314575195 9.800155639648438 -3.610966205596924
                    CHANNELS 3 Zrotation Yrotation Xrotation

                    JOINT right_shoulder
                    {
                        OFFSET 12.227510452270508 1.444488525390625 -1.2139320373535156
                        CHANNELS 3 Zrotation Yrotation Xrotation

                        JOINT right_elbow
                        {
                            OFFSET 8.212034225463867 -19.213760375976562 11.527243614196777
                            CHANNELS 3 Zrotation Yrotation Xrotation

                            JOINT right_wrist
                            {
                                OFFSET -4.130088806152344 -23.793907165527344 -15.067459106445312
                                CHANNELS 3 Zrotation Yrotation Xrotation

                                End Site
                                {
                                    OFFSET 0 0 0
                                }
                            }
                        }
                    }
                }

                JOINT neck
                {
                    OFFSET -2.4599201679229736 20.277938842773438 -4.931830883026123
                    CHANNELS 3 Zrotation Yrotation Xrotation

                    JOINT head
                    {
                        OFFSET 0.03335762023925781 12.56024169921875 -4.741053581237793
                        CHANNELS 3 Zrotation Yrotation Xrotation

                        End Site
                        {
                            OFFSET 0 0 0
                        }
                    }
                }
            }
        }
    }

}

MOTION
Frames: 13
Frame Time: 0.050000
-9.902805 95.993370 -64.366638 0.000000 0.000000 -0.000000 -5.755937 -4.891663 6.034543 -16.240053 -10.720685 -7.103204 9.909117 40.901605 -17.148566 0.000000 0.000000 -0.000000 2.269537 4.531826 -13.810925 -1.693358 1.647713 8.291055 5.582727 11.360235 -12.262650 0.000000 0.000000 -0.000000 -12.103417 17.040829 5.476035 1.787775 -0.682959 -1.624857 0.000000 0.000000 -0.000000 -2.370279 44.239458 0.177786 -29.559548 16.114883 3.798561 23.903968 51.053235 -29.569928 0.000000 0.000000 -0.000000 2.518087 34.871313 9.553341 -61.411429 -18.705643 4.225261 -15.615426 58.311408 33.521540 0.000000 0.000000 -0.000000 -5.658398 7.601768 4.035203 0.000000 0.000000 -0.000000
-8.561271 95.953362 -65.099411 0.000000 0.000000 -0.000000 -5.137899 -4.340870 4.742403 -14.982798 -9.947802 -6.285851 8.034904 39.123190 -14.170657 0.000000 0.000000 -0.000000 3.321427 5.508519 -14.282111 -1.279907 2.093910 8.262511 5.332464 9.050259 -12.493718 0.000000 0.000000 -0.000000 -11.166901 15.795396 5.143745 1.349931 -0.196789 -1.589402 0.000000 0.000000 -0.000000 -1.609947 42.850758 -0.520475 -28.664809 15.399148 3.185733 24.259316 51.571508 -28.905750 0.000000 0.000000 -0.000000 2.218160 34.292229 9.014176 -60.832152 -20.017099 5.087772 -13.651707 58.789270 30.325036 0.000000 0.000000 -0.000000 -5.718756 7.670873 4.121135 0.000000 0.000000 -0.000000
-7.253806 95.900124 -65.781654 0.000000 0.000000 -0.000000 -4.463794 -3.753442 3.643180 -13.936522 -9.307341 -5.576347 6.463556 37.342979 -11.561392 0.000000 0.000000 -0.000000 4.317374 6.417037 -14.742934 -0.976338 2.431626 8.259309 5.140418 7.031510 -12.607979 0.000000 0.000000 -0.000000 -10.238646 14.529982 4.852559 0.921904 0.281526 -1.489759 0.000000 0.000000 -0.000000 -0.998971 41.278124 -1.062988 -27.707063 14.598504 2.578326 24.426245 52.163205 -28.088172 0.000000 0.000000 -0.000000 1.939198 33.789939 8.527838 -60.712474 -21.386862 5.675707 -11.745150 59.505249 27.008633 0.000000 0.000000 -0.000000 -5.779833 7.740580 4.207999 0.000000 0.000000 -0.000000
-6.053488 95.849968 -66.374557 0.000000 0.000000 -0.000000 -3.856399 -3.233775 2.821030 -13.201653 -8.840882 -5.117884 5.194334 35.777513 -9.462911 0.000000 0.000000 -0.000000 5.205189 7.207871 -15.096784 -0.798197 2.634310 8.239031 4.951645 5.360993 -12.702515 0.000000 0.000000 -0.000000 -9.414088 13.376400 4.639551 0.529322 0.710493 -1.443074 0.000000 0.000000 -0.000000 -0.508447 39.858671 -1.491495 -26.834349 13.887097 2.150556 24.396526 52.470447 -27.435736 0.000000 0.000000 -0.000000 1.695658 33.421931 8.126923 -60.759137 -22.439795 6.081394 -9.863215 59.939344 23.845506 0.000000 0.000000 -0.000000 -5.806853 7.777629 4.201029 0.000000 0.000000 -0.000000
-4.974894 95.781052 -66.870895 0.000000 0.000000 -0.000000 -3.250803 -2.722240 2.125085 -12.641648 -8.472168 -4.781828 3.944395 34.218521 -7.462099 0.000000 0.000000 -0.000000 6.024256 7.928015 -15.440412 -0.729026 2.733829 8.271201 4.821236 4.043454 -12.784355 0.000000 0.000000 -0.000000 -8.620017 12.250202 4.453671 0.125244 1.148468 -1.478414 0.000000 0.000000 -0.000000 -0.067698 38.554123 -1.874582 -26.096682 13.148454 1.871661 24.198120 52.691381 -26.849572 0.000000 0.000000 -0.000000 1.492567 33.111963 7.793110 -60.854291 -23.304112 6.374576 -7.477093 60.173831 20.146653 0.000000 0.000000 -0.000000 -5.818469 7.803723 4.124873 0.000000 0.000000 -0.000000
-4.061296 95.693413 -67.250931 0.000000 0.000000 -0.000000 -2.670034 -2.238250 1.524801 -12.194764 -8.165435 -4.539965 2.742537 32.709125 -5.557042 0.000000 0.000000 -0.000000 6.846240 8.637268 -15.729609 -0.759443 2.729304 8.329291 4.662519 2.902621 -12.916212 0.000000 0.000000 -0.000000 -7.785739 11.043504 4.302087 -0.309269 1.616294 -1.616012 0.000000 0.000000 -0.000000 0.370888 37.336496 -2.258332 -25.476170 12.374984 1.620978 23.917426 52.841856 -26.205035 0.000000 0.000000 -0.000000 1.249153 32.989242 7.466434 -61.136388 -23.821836 6.579774 -4.456489 60.218360 15.746357 0.000000 0.000000 -0.000000 -5.833454 7.838537 4.019050 0.000000 0.000000 -0.000000
-3.349363 95.600975 -67.505104 0.000000 0.000000 -0.000000 -2.186230 -1.843015 1.021837 -11.887605 -7.967549 -4.324328 1.780440 31.496182 -4.018486 0.000000 0.000000 -0.000000 7.535594 9.222419 -15.908101 -0.903641 2.602368 8.412828 4.553719 2.172693 -12.972991 0.000000 0.000000 -0.000000 -7.039711 9.953770 4.183843 -0.651763 1.974257 -1.864888 0.000000 0.000000 -0.000000 0.822103 36.338626 -2.663003 -25.051070 11.612688 1.487349 23.633946 52.913967 -25.813243 0.000000 0.000000 -0.000000 1.015738 33.095997 7.218032 -61.482035 -24.054155 6.779729 -0.747007 59.974165 10.657840 0.000000 0.000000 -0.000000 -5.843678 7.870762 3.886935 0.000000 0.000000 -0.000000
-2.854921 95.525810 -67.653458 0.000000 0.000000 -0.000000 -1.785681 -1.516110 0.661637 -11.745332 -7.870204 -4.187965 1.076733 30.578707 -2.907020 0.000000 0.000000 -0.000000 8.090996 9.687214 -15.962598 -1.130865 2.381659 8.479561 4.446179 1.697833 -12.955017 0.000000 0.000000 -0.000000 -6.392675 8.968692 4.192636 -0.939351 2.273776 -2.259316 0.000000 0.000000 -0.000000 1.235057 35.691722 -3.044104 -24.748183 11.093050 1.537288 23.406482 52.869099 -25.447155 0.000000 0.000000 -0.000000 0.837960 33.410655 7.096547 -61.785701 -23.905753 6.943627 2.446603 59.321033 6.410421 0.000000 0.000000 -0.000000 -5.805292 7.838455 3.749171 0.000000 0.000000 -0.000000
-2.568779 95.450279 -67.726288 0.000000 0.000000 -0.000000 -1.475259 -1.266269 0.374993 -11.694876 -7.830676 -4.116257 0.527769 29.869755 -2.094608 0.000000 0.000000 -0.000000 8.513104 10.037082 -15.924216 -1.404167 2.113706 8.466384 4.301752 1.413138 -13.018988 0.000000 0.000000 -0.000000 -5.846196 8.115309 4.271162 -1.132992 2.467530 -2.637746 0.000000 0.000000 -0.000000 1.667239 35.287365 -3.454242 -24.395480 10.861399 1.769583 23.260820 52.521112 -25.150461 0.000000 0.000000 -0.000000 0.725073 33.885156 7.100842 -62.178002 -23.668088 7.039817 4.919359 58.608868 3.135711 0.000000 0.000000 -0.000000 -5.713686 7.741323 3.559212 0.000000 0.000000 -0.000000
-2.460669 95.392197 -67.748825 0.000000 0.000000 -0.000000 -1.258742 -1.097481 0.133417 -11.732689 -7.831892 -4.167667 0.004235 29.331456 -1.443503 0.000000 0.000000 -0.000000 8.833432 10.300075 -15.787355 -1.679826 1.835364 8.381398 4.136005 1.161518 -13.020985 0.000000 0.000000 -0.000000 -5.384134 7.381821 4.385604 -1.269945 2.603950 -3.044245 0.000000 0.000000 -0.000000 2.029934 35.062383 -3.803247 -23.963010 10.918126 2.119449 23.139621 51.907817 -24.862545 0.000000 0.000000 -0.000000 0.670616 34.315046 7.164023 -62.466338 -23.392152 7.095119 6.721669 57.976075 0.787868 0.000000 0.000000 -0.000000 -5.562751 7.562010 3.376551 0.000000 0.000000 -0.000000
-2.509345 95.324944 -67.731094 0.000000 0.000000 -0.000000 -1.144464 -1.016318 -0.069435 -11.888897 -7.887117 -4.372112 -0.572077 29.154691 -0.799069 0.000000 0.000000 -0.000000 9.005398 10.438412 -15.557870 -2.041970 1.480916 8.186235 4.004075 1.172191 -12.994738 0.000000 0.000000 -0.000000 -4.972127 6.734882 4.474003 -1.341671 2.669786 -3.473684 0.000000 0.000000 -0.000000 2.341309 35.204497 -4.117094 -23.710984 11.191595 2.482671 23.054434 51.358088 -23.982422 0.000000 0.000000 -0.000000 0.644066 34.993542 7.339288 -62.901231 -22.954513 7.123567 8.024610 57.392867 -0.817865 0.000000 0.000000 -0.000000 -5.406131 7.381521 3.134592 0.000000 0.000000 -0.000000
-2.726027 95.223793 -67.674866 0.000000 0.000000 -0.000000 -1.175773 -1.061447 -0.251340 -12.215496 -8.051879 -4.692745 -1.162124 29.511177 -0.254069 0.000000 0.000000 -0.000000 9.077046 10.492678 -15.277889 -2.569607 0.969785 8.002427 4.017458 1.704893 -12.866801 0.000000 0.000000 -0.000000 -4.608638 6.125218 4.699783 -1.373468 2.689934 -4.005255 0.000000 0.000000 -0.000000 2.707261 35.980927 -4.511788 -23.733505 11.805854 3.094522 23.074845 50.649969 -22.733918 0.000000 0.000000 -0.000000 0.475135 36.132156 7.494505 -63.534204 -22.420948 7.480008 9.527795 57.091515 -2.464779 0.000000 0.000000 -0.000000 -5.210810 7.143838 2.912375 0.000000 0.000000 -0.000000
-3.121592 95.111061 -67.583374 0.000000 0.000000 -0.000000 -1.327822 -1.202722 -0.335586 -12.631466 -8.280406 -5.041270 -1.629118 30.127593 0.012042 0.000000 0.000000 -0.000000 8.994792 10.415441 -14.894801 -3.166621 0.381310 7.786620 4.067126 2.609705 -12.751554 0.000000 0.000000 -0.000000 -4.418045 5.774491 4.940788 -1.304809 2.585223 -4.440223 0.000000 0.000000 -0.000000 3.009465 37.138085 -4.859336 -23.849464 12.739370 3.860887 23.193977 49.758202 -21.172763 0.000000 0.000000 -0.000000 0.216280 37.501820 7.632572 -64.137591 -21.862592 8.128415 10.873377 57.159384 -3.646535 0.000000 0.000000 -0.000000 -4.908557 6.763000 2.642592 0.000000 0.000000 -0.000000
